<?xml version="1.0" standalone="no"?>
<!DOCTYPE svg PUBLIC "-//W3C//DTD SVG 20010904//EN"
 "http://www.w3.org/TR/2001/REC-SVG-20010904/DTD/svg10.dtd">
<svg version="1.0" xmlns="http://www.w3.org/2000/svg"
 width="700.000000pt" height="700.000000pt" viewBox="0 0 700.000000 700.000000"
 preserveAspectRatio="xMidYMid meet">
<metadata>
Created by potrace 1.14, written by Peter Selinger 2001-2017
</metadata>
<g transform="translate(0.000000,700.000000) scale(0.100000,-0.100000)"
fill="#000000" stroke="none">
<path d="M3478 6990 c-67 -17 -155 -68 -205 -119 -50 -50 -98 -135 -110 -191
-7 -38 -8 -39 -173 -90 -74 -23 -170 -53 -212 -66 -43 -13 -113 -35 -155 -48
-43 -13 -158 -49 -256 -80 l-178 -55 -36 40 c-197 218 -557 76 -557 -220 0
-60 18 -116 61 -192 2 -3 -20 -30 -49 -61 -50 -53 -389 -405 -509 -528 -56
-57 -56 -57 -106 -53 -145 14 -279 -97 -288 -238 -4 -66 8 -112 42 -167 l29
-47 -88 -225 c-49 -124 -93 -234 -98 -245 -5 -11 -52 -132 -105 -270 -54 -137
-100 -253 -104 -256 -3 -4 -35 -9 -71 -12 -119 -9 -222 -78 -275 -183 -25 -51
-29 -71 -30 -144 0 -73 4 -93 27 -141 56 -113 169 -189 286 -190 l61 -1 181
-546 c170 -508 181 -546 164 -555 -43 -23 -102 -97 -119 -147 -48 -143 20
-288 160 -345 77 -31 149 -26 229 15 l58 30 82 -67 c44 -37 153 -127 241 -201
88 -74 169 -141 180 -150 111 -92 219 -182 259 -216 27 -22 53 -44 58 -47 6
-4 0 -32 -16 -72 -111 -278 76 -580 373 -602 61 -5 182 20 229 47 68 39 124
91 163 150 21 33 39 64 41 69 2 5 64 -11 138 -36 74 -26 214 -73 310 -106 96
-33 187 -65 201 -70 23 -9 27 -17 32 -70 16 -178 201 -281 364 -203 60 29 108
82 125 137 6 20 16 41 22 46 6 5 72 28 146 51 74 23 185 57 245 76 61 19 159
50 220 69 l110 34 48 -55 c71 -79 155 -117 263 -118 72 0 88 3 147 32 152 75
233 246 191 404 l-12 47 51 43 c28 24 55 48 61 54 6 5 67 59 136 119 69 60
141 124 160 141 67 59 306 270 398 352 92 80 95 81 121 68 34 -18 119 -34 157
-29 106 13 204 85 245 179 40 95 20 224 -48 304 l-36 42 37 141 c20 78 68 261
106 407 39 146 88 335 111 420 59 229 53 217 99 224 51 8 117 60 155 121 27
43 30 57 30 124 0 65 -4 83 -27 123 -33 56 -72 89 -131 114 l-44 18 -122 371
c-67 203 -126 379 -131 390 -14 33 -80 235 -80 245 0 5 12 22 26 37 98 104
122 244 63 368 -71 150 -254 222 -408 159 l-44 -17 -81 84 c-84 88 -309 327
-366 389 -47 51 -273 291 -288 306 -7 7 -14 41 -16 76 -3 74 -24 123 -73 171
-55 56 -97 72 -183 72 -60 0 -83 -5 -116 -24 l-41 -23 -449 127 c-247 69 -457
129 -466 131 -10 3 -25 30 -37 67 -43 129 -139 229 -263 273 -53 19 -190 27
-240 14z m-302 -564 l17 -55 -59 -68 c-33 -37 -168 -196 -299 -353 -132 -157
-242 -287 -245 -290 -3 -3 -34 -39 -68 -82 l-63 -76 -55 25 c-40 18 -75 26
-130 28 l-76 2 -18 54 c-10 30 -34 105 -53 167 l-36 113 44 40 c53 49 92 128
100 205 4 33 8 59 9 60 2 2 191 62 256 82 70 21 345 108 525 166 61 19 115 35
122 35 7 1 20 -23 29 -53z m924 30 c47 -14 110 -32 140 -40 30 -8 125 -34 210
-59 85 -24 209 -59 276 -78 118 -32 121 -34 115 -58 -12 -43 6 -131 36 -180
16 -26 50 -60 79 -80 l51 -33 -22 -77 c-13 -42 -38 -130 -56 -196 l-33 -120
-57 2 c-62 1 -130 -10 -167 -29 -21 -11 -27 -8 -54 22 -18 19 -55 60 -82 90
-28 30 -82 91 -121 134 -38 44 -75 84 -80 90 -6 6 -51 56 -100 111 -49 55 -92
102 -95 105 -3 3 -25 28 -49 55 -24 28 -65 73 -90 100 -93 102 -88 84 -47 166
20 39 36 78 36 85 0 19 13 18 110 -10z m-779 -225 c103 -80 260 -104 390 -61
35 12 70 26 76 32 12 10 33 -10 149 -142 21 -25 44 -50 49 -56 6 -6 44 -48 85
-94 41 -45 86 -95 100 -110 14 -15 54 -60 90 -100 36 -40 76 -85 90 -100 84
-91 165 -184 168 -190 2 -4 -12 -29 -30 -54 l-32 -46 -811 6 c-445 3 -861 7
-923 8 l-112 1 -20 33 c-12 19 -17 39 -13 46 14 24 708 846 714 846 4 0 17 -8
30 -19z m1983 -284 c17 -19 87 -94 156 -167 69 -73 136 -145 150 -160 14 -14
84 -89 156 -166 223 -236 224 -237 212 -251 -7 -9 -24 -12 -52 -8 -97 13 -150
20 -246 30 -30 3 -71 7 -90 10 -47 6 -194 24 -255 30 -27 3 -59 8 -70 10 -11
2 -27 4 -36 4 -9 1 -33 28 -53 60 -20 33 -59 80 -87 104 l-50 43 61 216 c33
119 60 219 60 221 0 3 15 11 34 17 19 6 40 18 46 26 18 21 30 17 64 -19z
m-3487 -88 c15 -6 48 -13 73 -14 25 -2 48 -4 52 -4 4 -1 23 -54 43 -118 20
-65 43 -137 51 -161 8 -23 14 -47 14 -52 0 -5 -22 -30 -50 -56 -48 -45 -110
-149 -110 -185 0 -30 -10 -32 -165 -43 -44 -4 -114 -9 -155 -12 -41 -2 -95 -7
-120 -9 -25 -2 -90 -7 -146 -10 -98 -6 -101 -6 -116 17 -16 24 -14 26 91 135
272 284 504 523 507 523 1 0 15 -5 31 -11z m2586 -701 c13 1 17 -7 17 -35 0
-96 56 -219 134 -292 l36 -34 -19 -31 c-10 -17 -49 -89 -86 -161 -37 -71 -80
-152 -95 -180 -15 -27 -53 -99 -85 -160 -32 -60 -128 -240 -213 -400 -203
-381 -229 -430 -298 -560 -111 -210 -111 -210 -136 -207 -13 2 -66 5 -118 7
l-95 3 -473 858 c-260 473 -478 869 -484 880 -9 19 -5 27 29 58 47 42 98 134
108 191 4 22 9 48 12 58 5 18 36 18 876 12 480 -4 880 -7 890 -7z m907 -43
c36 -3 76 -8 90 -10 23 -3 53 -7 170 -20 25 -3 61 -7 80 -10 19 -2 58 -7 85
-10 219 -24 201 -18 208 -70 14 -96 85 -193 174 -236 l45 -22 -7 -111 c-3 -61
-8 -127 -10 -146 -2 -19 -7 -87 -10 -150 -3 -63 -8 -131 -10 -150 -2 -19 -7
-82 -10 -140 -3 -58 -8 -132 -11 -165 -2 -33 -7 -98 -9 -145 -3 -47 -8 -107
-10 -135 -2 -27 -7 -99 -11 -160 -3 -60 -7 -126 -9 -145 -2 -19 -4 -39 -4 -43
-2 -22 -46 44 -127 188 -15 27 -312 540 -464 800 -67 116 -131 226 -142 245
-11 19 -63 108 -115 198 l-94 163 36 49 c40 54 73 141 77 200 1 21 4 37 7 35
3 -1 35 -6 71 -10z m-3405 -73 c9 -23 32 -64 51 -92 l33 -49 -128 -263 c-71
-145 -160 -328 -199 -408 -38 -80 -120 -248 -182 -375 -62 -126 -152 -312
-201 -412 -69 -142 -93 -183 -108 -183 -16 0 -20 11 -26 83 -3 45 -8 98 -10
117 -2 20 -6 73 -9 118 -4 45 -8 99 -11 119 -2 21 -7 78 -10 126 -3 49 -7 103
-10 120 -2 18 -7 70 -10 117 -3 47 -7 103 -10 125 -4 41 -13 143 -21 255 -2
36 -6 83 -9 105 -2 22 -7 85 -10 140 -4 55 -9 103 -12 108 -2 4 17 16 44 28
79 34 145 109 158 183 7 33 10 36 44 37 20 1 52 2 71 3 93 7 229 17 265 21 22
2 80 7 129 10 50 3 91 7 92 8 1 1 16 2 33 2 26 0 32 -5 46 -43z m357 -237 l78
0 31 -60 c18 -33 49 -89 69 -125 20 -36 57 -103 83 -150 25 -47 75 -138 111
-203 36 -65 66 -120 66 -122 0 -2 24 -45 53 -97 30 -51 100 -178 157 -283 57
-104 156 -284 220 -400 63 -115 129 -236 145 -267 l29 -57 -28 -22 c-43 -34
-75 -70 -102 -115 -27 -45 -23 -45 -164 -29 -80 9 -126 13 -205 20 -38 4 -86
8 -105 10 -19 2 -64 7 -100 10 -36 3 -78 8 -95 10 -16 2 -61 7 -100 10 -38 3
-88 8 -110 10 -22 2 -67 7 -100 10 -33 3 -78 8 -100 10 -22 2 -71 7 -110 10
-38 4 -86 8 -105 10 -19 2 -64 7 -100 10 -36 4 -76 8 -90 10 -14 2 -62 7 -108
10 -46 4 -91 8 -100 10 -9 2 -27 4 -39 4 -16 1 -27 13 -43 48 -11 26 -32 61
-45 79 -14 18 -25 35 -25 37 0 4 108 229 285 592 54 110 132 272 175 360 43
88 134 276 204 418 l126 259 32 -8 c18 -5 68 -9 110 -9z m2772 -120 c30 -54
333 -579 355 -615 15 -24 265 -453 277 -475 6 -11 61 -107 123 -213 l113 -193
-44 -48 c-23 -26 -47 -55 -53 -65 -6 -9 -25 -19 -45 -21 -19 -2 -62 -6 -95
-10 -33 -3 -71 -8 -85 -10 -14 -2 -61 -6 -105 -10 -44 -4 -93 -8 -110 -11 -16
-2 -55 -6 -85 -9 -30 -3 -73 -7 -95 -9 -22 -2 -67 -7 -100 -10 -33 -4 -78 -8
-100 -10 -22 -3 -69 -7 -105 -11 -36 -3 -81 -8 -100 -10 -108 -11 -164 -17
-345 -35 -60 -6 -128 -13 -150 -15 -49 -6 -218 -23 -300 -30 l-60 -6 -33 49
c-18 27 -43 59 -57 72 l-24 23 38 71 c21 39 62 116 91 171 54 101 182 342 250
470 66 123 176 330 265 500 32 61 70 133 85 160 15 28 51 95 80 150 93 174
109 200 122 197 34 -10 128 -7 173 4 76 18 83 15 119 -51z m1446 -450 c136
-409 157 -481 144 -488 -38 -22 -87 -74 -108 -116 -25 -51 -34 -140 -17 -183
9 -24 2 -33 -106 -142 -63 -64 -117 -116 -119 -116 -3 0 -18 7 -33 15 -24 12
-28 20 -26 47 2 18 6 83 9 143 4 61 9 135 11 165 3 30 7 93 10 140 3 47 7 117
10 155 3 39 7 106 10 150 6 79 11 150 19 275 3 36 8 115 12 175 4 61 8 121 9
135 2 14 3 49 4 79 1 30 3 52 6 50 2 -3 76 -221 165 -484z m-5596 420 c3 -27
8 -86 11 -130 7 -88 13 -163 19 -240 3 -27 7 -84 11 -125 3 -41 8 -95 10 -120
3 -25 7 -79 10 -120 3 -41 7 -95 10 -120 4 -48 13 -150 20 -242 3 -32 7 -84
10 -115 2 -32 7 -92 10 -134 l5 -76 -34 -18 -34 -18 -58 49 c-32 27 -68 57
-79 67 -11 10 -48 42 -82 69 -62 50 -63 52 -57 92 3 23 7 46 9 52 6 21 -17
119 -40 163 -12 25 -41 64 -63 86 l-40 40 80 205 c44 113 86 219 93 235 7 17
50 125 96 242 46 117 84 211 85 210 1 -1 5 -24 8 -52z m-171 -1470 c128 -108
137 -118 130 -143 -26 -101 10 -216 92 -291 l53 -48 -49 -204 c-27 -112 -54
-222 -60 -243 -10 -38 -16 -24 -180 470 -94 280 -172 516 -173 524 -3 13 29
49 44 50 3 0 67 -52 143 -115z m5901 93 c-4 -13 -24 -88 -45 -168 -20 -80 -58
-224 -83 -320 -26 -96 -65 -245 -87 -330 -39 -154 -66 -251 -77 -280 -6 -16
-16 31 -27 120 -4 30 -9 64 -11 75 -3 11 -11 69 -20 130 -8 60 -16 112 -17
115 -1 3 24 31 56 62 32 32 67 78 79 105 29 67 35 166 13 233 l-17 52 113 114
c63 63 117 114 122 114 5 0 5 -10 1 -22z m-844 -398 c0 -32 38 -123 65 -154
14 -16 25 -34 25 -39 0 -6 -97 -205 -216 -441 -243 -483 -625 -1240 -629
-1244 -1 -1 -22 4 -46 11 -46 13 -108 14 -152 3 -25 -6 -36 8 -229 291 -112
164 -235 345 -275 403 -39 58 -119 175 -177 260 -58 85 -146 215 -196 287
l-90 133 33 47 c57 81 87 178 81 255 -3 28 -6 27 166 44 25 2 65 6 90 9 25 3
70 7 100 10 30 3 71 7 90 10 19 2 69 7 110 10 41 3 82 8 90 10 8 2 51 6 95 10
44 3 91 8 105 10 14 2 52 7 85 10 60 5 122 12 205 20 25 2 74 7 110 10 36 4
76 8 90 10 14 2 59 7 100 11 41 3 89 8 105 10 17 2 64 6 105 10 41 3 76 7 78
9 1 1 20 2 42 3 34 2 40 -1 40 -18z m-4215 -15 c44 -3 87 -8 95 -10 8 -2 55
-6 103 -10 48 -3 96 -8 105 -10 9 -1 51 -6 92 -10 41 -3 91 -8 110 -10 19 -2
67 -6 105 -10 39 -3 88 -8 110 -10 22 -2 69 -7 105 -10 36 -3 76 -8 90 -10 14
-2 61 -7 105 -11 44 -3 91 -7 105 -9 14 -1 59 -6 100 -9 41 -4 86 -9 100 -11
14 -2 61 -6 104 -10 80 -7 117 -12 121 -17 1 -2 5 -28 9 -58 9 -81 24 -128 62
-187 19 -30 34 -56 34 -58 0 -3 -28 -49 -63 -103 -71 -110 -571 -893 -660
-1035 -78 -123 -73 -119 -127 -103 -38 11 -136 13 -203 3 -15 -2 -59 79 -226
408 -381 752 -591 1171 -591 1182 0 6 6 16 14 22 8 7 24 32 35 56 19 41 23 44
53 40 18 -2 69 -6 113 -10z m-285 -320 c36 -71 216 -427 398 -789 183 -362
329 -663 325 -667 -4 -4 -199 151 -432 345 l-425 354 -1 73 c-1 51 -7 88 -22
119 -20 44 -66 99 -98 117 -14 8 -14 17 5 94 11 46 23 95 26 109 6 27 79 320
90 358 5 19 12 23 38 20 29 -3 35 -11 96 -133z m4826 51 c1 -1 53 -350 60
-401 2 -16 6 -40 8 -52 3 -16 -1 -24 -17 -29 -60 -18 -139 -106 -158 -178 -16
-57 -14 -133 4 -183 l14 -42 -71 -63 c-39 -34 -73 -65 -76 -68 -3 -3 -81 -73
-175 -154 -93 -82 -200 -176 -237 -208 -37 -33 -78 -69 -90 -80 -57 -49 -153
-134 -165 -146 -7 -7 -13 -11 -13 -9 0 3 154 311 342 684 188 373 371 738 407
811 l66 133 50 -7 c28 -3 51 -7 51 -8z m-2562 -337 c55 0 133 16 177 35 13 6
40 -28 123 -151 59 -87 172 -252 251 -368 139 -203 178 -261 444 -652 l123
-181 -28 -36 -29 -36 -960 1 -960 0 -28 58 c-15 32 -43 77 -63 99 -19 23 -35
44 -36 47 0 3 22 41 49 83 27 42 203 318 391 613 l342 536 72 -25 c46 -15 93
-23 132 -23z m997 -1556 c1 -7 2 -20 2 -28 0 -29 -3 -32 -45 -44 -24 -7 -115
-35 -203 -63 -88 -28 -196 -62 -240 -75 -44 -14 -107 -34 -139 -44 -33 -10
-65 -19 -71 -19 -7 0 -24 17 -39 39 -51 73 -173 116 -262 92 -22 -6 -61 -24
-87 -41 l-48 -30 -192 65 c-106 36 -235 81 -287 99 -52 19 -112 39 -132 46
-21 6 -38 13 -38 14 0 1 400 2 890 2 717 0 890 -3 891 -13z"/>
</g>
</svg>
